PathFileType	3	(X/Y/Z)	D:\Jess\Healthy\Labelled\HA18\20250730\SRRun01.trc
DataRate	CameraRate	NumFrames	NumMarkers	Units	OrigDataRate	OrigDataStartFrame	OrigNumFrames
250.0	250.0	4	33	mm	250.0	35625	2501
Frame#	Time	C7			T10			CLAV			LSHO			RSHO			LASIS			RASIS			LPSIS			RPSIS			LILCR			RILCR			LGTR			LTHI			LLTHI			LLEP			LPSH			LLSH			LDSH			LLMAL			LTOE			L5TH			LHEE			RGTR			RTHI			RLTHI			RLEP			RPSH			RLSH			RDSH			RLMAL			RTOE			R5TH			RHEE			
		X1	Y1	Z1	X2	Y2	Z2	X3	Y3	Z3	X4	Y4	Z4	X5	Y5	Z5	X6	Y6	Z6	X7	Y7	Z7	X8	Y8	Z8	X9	Y9	Z9	X10	Y10	Z10	X11	Y11	Z11	X12	Y12	Z12	X13	Y13	Z13	X14	Y14	Z14	X15	Y15	Z15	X16	Y16	Z16	X17	Y17	Z17	X18	Y18	Z18	X19	Y19	Z19	X20	Y20	Z20	X21	Y21	Z21	X22	Y22	Z22	X23	Y23	Z23	X24	Y24	Z24	X25	Y25	Z25	X26	Y26	Z26	X27	Y27	Z27	X28	Y28	Z28	X29	Y29	Z29	X30	Y30	Z30	X31	Y31	Z31	X32	Y32	Z32	X33	Y33	Z33	

626	142.496	1058.158977963319	1469.599156936249	-331.7274306939769	993.8906560630041	1232.708886886293	-360.559685964041	1164.036308337162	1362.298334197832	-286.2553956340137	1165.829075350831	1430.246630448854	-445.5456012226762	1070.963371958431	1423.402947841011	-169.0147697315663	1153.819480420308	963.5039018330559	-418.6615415452753	1131.249497043923	992.4817277541728	-220.1342960045853	958.5659127603155	1042.994372994712	-361.4598466809371	951.3632366412116	1038.854073425676	-316.3348160796227	1128.957969743813	1047.075955840604	-472.1468716540622	1055.063562994834	1079.177676989699	-173.9479722516003	1052.850694290894	892.1572261009272	-505.7048258183993	1104.724458964543	700.9309859182924	-391.9365733301264	964.9013633697039	644.4243828715435	-455.5379982711664	912.5478816427063	535.6717926370768	-434.5863794356177	892.3155067909902	441.8029295026575	-384.1698621109914	756.2278359185685	368.5181076520207	-454.0872285339313	747.1061714086901	265.7840072242583	-393.6427386750224	648.4885838756961	225.3484131721398	-434.5475633972879	679.6160164137304	81.43913557135687	-396.9493274507691	649.3397508518641	81.1003980399564	-438.9844558430445	590.9399738922566	274.5375369184431	-401.9885262687403	1074.063559790573	919.7899942599381	-133.3935542089369	1224.912802848936	784.1139568405438	-228.7054417506665	1171.437256876379	650.4225339138536	-170.862489609236	1199.623192190174	511.548732528116	-194.1476331719498	1256.35391558427	459.6463197668862	-240.0779868787034	1206.628743993185	312.0299763375668	-183.0986283635552	1296.901883825604	235.8741187716251	-244.8032274931373	1284.041722387311	141.9849021825025	-220.2096611537994	1413.651333050723	160.3185541119263	-229.1892358731878	1404.602333868951	115.2397635189684	-192.3842927042076	1223.316354351206	77.98411602014241	-275.7636545166832	
627	142.5	1058.265287433183	1469.263758455529	-331.0677198972956	994.0423852972605	1232.704782774436	-360.4340681755796	1164.064310793397	1362.365931041436	-285.1669867956277	1166.141599348142	1429.997609073273	-444.5702773189992	1071.090555957047	1422.998830258964	-168.3342764779466	1154.639490843028	963.5215305915078	-417.539419996904	1131.486537984313	992.6873603806715	-220.0607268208668	959.2043688701481	1044.08838043607	-361.6421135366283	951.9052124820564	1039.860894528929	-316.6376774300024	1130.583464606368	1047.793774530553	-471.4844775694368	1055.656464154118	1080.186268041237	-173.257205273134	1053.860399777782	892.7637777725793	-505.7539099562837	1106.155636417612	700.946998773169	-391.2078467759901	967.0226309757077	643.7397573906635	-454.8325693185968	915.0254593385703	534.6150575494295	-433.645595853993	892.923661363209	441.1306994941355	-383.2337426994616	756.346412498583	370.008639273331	-454.6830344402954	744.29615896834	267.9144904745022	-394.0846117605413	645.9918259138207	228.8367790112503	-436.9234239884366	672.7980516916582	84.3337870837766	-396.1164692905804	643.1394170300932	84.31496585561217	-438.6697691786422	589.2996677807839	280.1510496182897	-406.3601025553074	1074.216997483696	920.0492025880711	-133.5990350756854	1223.519720539582	781.0881606199786	-229.0165935060325	1170.150486512685	648.7761054645605	-170.0809874310523	1199.095680745533	510.814652941164	-194.6701839429059	1256.025738173414	459.5764369874817	-240.8693018893676	1208.204914299518	311.6057347771424	-183.4778395524408	1299.121666949026	236.4408262523414	-245.5636957150109	1287.654864820064	142.2765504974635	-221.0102415627473	1417.023830695201	162.6326550607066	-230.7651971579426	1408.96552408146	117.1790431556531	-194.0124994147783	1227.559462696412	77.06490280690265	-276.1626116318649	
628	142.504	1058.370853449774	1468.801134769351	-330.3629874884686	994.1432760032467	1232.577918529064	-360.2406252199296	1164.091736096748	1362.251841894297	-284.1057230724182	1166.435327339809	1429.580808019982	-443.6581815340886	1071.255757336823	1422.427008469192	-167.6204612770811	1155.373417531546	963.4590234585585	-416.491167920357	1131.706654729863	992.7440195534861	-219.9400667994839	959.7875221254391	1045.006942760961	-361.7892838173896	952.3432015827397	1040.696702183524	-316.9358120509938	1131.913854859549	1048.463892284598	-470.8153299199111	1056.261361761482	1081.019330235606	-172.5268334892396	1054.856852013191	893.2285611919289	-505.7950472634184	1107.820214593565	700.8805340576339	-390.4236528407731	969.5029315646817	642.6494894553797	-454.0695070223379	917.8615448110855	533.1709533668933	-432.6800719793571	893.8591663982494	440.1060624643536	-382.3322984938152	756.7618767903276	371.2781591760652	-455.3662650016588	741.6591358482366	269.9767807836077	-394.5492934133532	643.584178181497	232.3126860451407	-439.2972502679315	666.2604141739604	87.45488608154547	-395.3779116434702	637.1817877738823	87.6528737269566	-438.4258606053251	587.766557814167	285.6483191851617	-410.6574577785956	1074.333198863873	920.0387751989228	-133.8087523422774	1222.029206554664	777.8541118518583	-229.3417044842346	1169.076659849473	646.9808630325234	-169.366950222103	1198.713543002105	510.037618242813	-195.2129855778322	1255.635138082288	459.3353628624753	-241.7125174577031	1209.395332665046	311.1409126352438	-183.8583028857748	1300.644566426555	236.7433501497764	-246.3648662283347	1290.267168042936	142.3814072382402	-221.825229453369	1419.406194953718	164.3383870371473	-232.2792440609023	1412.153649850041	118.5746724538426	-195.5814808698587	1230.6407094037	76.2092808163945	-276.6239150027325	
629	142.508	1058.474386681907	1468.215086906876	-329.615829246932	994.1953349881441	1232.328776238706	-359.9802800397491	1164.117097899037	1361.954206245304	-283.077355253402	1166.708049141967	1428.996563316708	-442.8122276501877	1071.456004369937	1421.689204873971	-166.8805327160983	1156.024887280203	963.3184849152319	-415.5196576287259	1131.908849758222	992.650732121613	-219.7730523364245	960.3239097992648	1045.742125101103	-361.8996990546771	952.6886985239006	1041.354384994699	-317.2226798287489	1132.945483421633	1049.080451187714	-470.1486449771984	1056.861443663515	1081.66529641531	-171.7693797608511	1055.842625597615	893.546767564669	-505.8243472411959	1109.703496638844	700.7302443971485	-389.5924516809969	972.3118819639778	641.1703130978416	-453.260248763108	921.022143381306	531.3677721266509	-431.7076415883313	895.1083580837834	438.748778789769	-381.491285254157	757.4609669697247	372.3462140274333	-456.1468985549	739.2167420443022	271.9807544710168	-395.0625489106725	641.2701091557345	235.7940627277574	-441.6586233410976	660.0348705691822	90.7856987047691	-394.7945490118272	631.4765122277172	91.11961416462297	-438.2961819161269	586.3500204771891	291.0366673951969	-414.8168791703568	1074.410104858984	919.7603192874642	-134.0164797357773	1220.472850056146	774.4703415373252	-229.6722249519706	1168.223080557998	645.0592345098959	-168.7539269498388	1198.460473035991	509.2011686215632	-195.7709534268572	1255.172728080737	458.89992844736	-242.6012660436723	1210.197371366894	310.5957964122875	-184.2369857206208	1301.477251945709	236.7446118832214	-247.2083157645198	1291.888511166936	142.2530399419611	-222.6528841610472	1420.821415286579	165.3847139096753	-233.7324811524141	1414.181986877767	119.3732649390665	-197.0902568610582	1232.560428855799	75.39215025303727	-277.1479100598522	
